<?xml version="1.0" standalone="no"?>
<!DOCTYPE svg PUBLIC "-//W3C//DTD SVG 20010904//EN"
 "http://www.w3.org/TR/2001/REC-SVG-20010904/DTD/svg10.dtd">
<svg version="1.0" xmlns="http://www.w3.org/2000/svg"
 width="500.000000pt" height="500.000000pt" viewBox="0 0 500.000000 500.000000"
 preserveAspectRatio="xMidYMid meet">
<metadata>
Created by potrace 1.14, written by Peter Selinger 2001-2017
</metadata>
<g transform="translate(0.000000,500.000000) scale(0.100000,-0.100000)"
fill="#000000" stroke="none">
<path d="M2365 3834 c-334 -44 -587 -166 -811 -389 -305 -304 -444 -722 -379
-1145 87 -575 530 -1029 1098 -1126 152 -25 418 -16 550 20 261 70 449 178
633 362 190 191 323 446 369 708 19 114 19 333 0 456 -67 413 -345 789 -723
979 -94 47 -224 93 -333 117 -70 15 -336 27 -404 18z m382 -48 c467 -92 843
-424 1000 -881 59 -172 80 -447 48 -631 -44 -252 -164 -487 -343 -676 -110
-115 -230 -204 -367 -272 -214 -106 -385 -142 -639 -133 -127 4 -182 11 -258
30 -435 113 -789 439 -928 855 -44 133 -61 233 -67 387 -4 103 -1 166 11 240
94 571 550 1015 1122 1094 95 13 322 6 421 -13z"/>
<path d="M2030 3174 c0 -46 -124 -1047 -132 -1068 -14 -34 -62 -66 -100 -66
-16 0 -28 -4 -28 -10 0 -6 60 -10 160 -10 100 0 160 4 160 10 0 6 -13 10 -30
10 -20 0 -34 8 -45 24 -15 22 -14 53 15 388 17 199 34 375 38 390 6 23 37 -37
208 -409 111 -241 206 -439 211 -440 6 -2 17 21 26 51 8 30 95 234 194 452
163 364 178 394 185 363 4 -19 21 -202 39 -406 32 -361 32 -373 14 -393 -10
-11 -28 -20 -41 -20 -13 0 -26 -4 -29 -10 -4 -7 57 -10 174 -10 171 0 233 10
139 23 -30 4 -51 14 -69 34 -28 32 -22 -4 -121 826 -21 176 -37 277 -44 277
-6 0 -109 -217 -229 -482 -120 -266 -219 -484 -220 -485 -1 -2 -102 215 -226
482 -123 267 -230 485 -236 485 -7 0 -13 -3 -13 -6z"/>
</g>
</svg>
