<?xml version="1.0" standalone="no"?>
<!DOCTYPE svg PUBLIC "-//W3C//DTD SVG 20010904//EN"
 "http://www.w3.org/TR/2001/REC-SVG-20010904/DTD/svg10.dtd">
<svg version="1.0" xmlns="http://www.w3.org/2000/svg"
 width="500.000000pt" height="500.000000pt" viewBox="0 0 500.000000 500.000000"
 preserveAspectRatio="xMidYMid meet">

<g transform="translate(0.000000,500.000000) scale(0.100000,-0.100000)"
fill="#000000" stroke="none">
<path d="M2350 3825 c-8 -2 -49 -9 -90 -15 -93 -15 -262 -70 -350 -115 -380
-192 -651 -553 -725 -968 -14 -80 -17 -132 -12 -270 7 -231 40 -362 139 -561
180 -363 518 -622 924 -707 140 -29 373 -32 507 -5 547 107 966 525 1074 1073
22 116 22 343 -1 473 -50 277 -174 511 -380 715 -162 161 -311 253 -518 320
-151 49 -257 65 -417 64 -75 -1 -143 -3 -151 -4z m390 -31 c535 -101 950 -515
1057 -1052 24 -123 24 -388 0 -499 -58 -268 -174 -482 -366 -674 -193 -193
-400 -306 -672 -365 -129 -29 -422 -27 -544 4 -502 125 -858 473 -991 967 -90
336 -33 717 152 1011 218 347 569 574 965 624 98 12 294 4 399 -16z"/>
<path d="M2036 3139 c-4 -19 -31 -248 -61 -509 -30 -261 -59 -491 -65 -511
-13 -46 -39 -69 -97 -85 -44 -12 -36 -13 112 -12 116 0 151 2 128 9 -67 19
-67 11 -27 454 19 220 37 402 40 404 6 6 -5 29 214 -447 112 -243 207 -439
210 -435 4 5 12 28 19 52 14 48 367 840 382 855 6 6 9 3 9 -10 0 -10 16 -200
36 -422 34 -386 35 -404 18 -423 -9 -11 -31 -23 -48 -28 -21 -6 26 -9 149 -9
165 -1 176 0 132 12 -55 15 -94 47 -101 85 -3 14 -33 256 -67 536 -33 281 -63
512 -65 514 -6 7 2 23 -213 -454 -230 -508 -236 -521 -243 -509 -3 5 -103 221
-223 479 -119 259 -220 474 -225 479 -5 5 -11 -6 -14 -25z"/>
</g>
</svg>
